<?xml version="1.0" encoding="utf-8"?>
<!-- Generator: Adobe Illustrator 23.1.0, SVG Export Plug-In . SVG Version: 6.00 Build 0)  -->
<svg version="1.1" id="Слой_1" xmlns="http://www.w3.org/2000/svg" xmlns:xlink="http://www.w3.org/1999/xlink" x="0px" y="0px"
	 viewBox="0 0 1920 1080" style="enable-background:new 0 0 1920 1080;" xml:space="preserve">
<style type="text/css">
	.st0{fill:#FFFFFF;stroke:#000000;stroke-width:10;stroke-miterlimit:10;}
	.st1{fill:none;}
	.st2{font-family:'Tahoma';}
	.st3{font-size:310px;}
	.st4{font-size:376.8896px;}
</style>
<path class="st0" d="M1130.39,497.44c0,107.78-83.39,196.08-189.16,203.89c-5.05,0.38-10.15,0.57-15.29,0.57H375.85
	c-112.92,0-204.45-91.54-204.45-204.46s91.53-204.46,204.45-204.46h550.09c5.14,0,10.24,0.19,15.29,0.57
	C1047,301.36,1130.39,389.66,1130.39,497.44z"/>
<rect x="228.71" y="376.78" class="st1" width="849.83" height="241.31"/>
<text transform="matrix(1 0 0 1 228.7113 612.3831)" class="st2 st3">ASTRI</text>
<path class="st0" d="M941.23,292.98v0.57c-5.05-0.38-10.15-0.57-15.29-0.57H941.23z"/>
<path class="st0" d="M925.94,701.9c5.14,0,10.24-0.19,15.29-0.57v0.57H925.94z"/>
<circle class="st0" cx="1364.95" cy="497.44" r="204.46"/>
<text transform="matrix(0.9687 0 0 1 1226.1592 646.7346)" class="st2 st4">II</text>
</svg>
